<?xml version="1.0" standalone="no"?>
<!DOCTYPE svg PUBLIC "-//W3C//DTD SVG 20010904//EN"
 "http://www.w3.org/TR/2001/REC-SVG-20010904/DTD/svg10.dtd">
<svg version="1.0" xmlns="http://www.w3.org/2000/svg"
 width="3306.000000pt" height="3306.000000pt" viewBox="0 0 3306.000000 3306.000000"
 preserveAspectRatio="xMidYMid meet">
<metadata>
Created by potrace 1.14, written by Peter Selinger 2001-2017
</metadata>
<g transform="translate(0.000000,3306.000000) scale(0.100000,-0.100000)"
fill="#000000" stroke="none">
<path d="M559 20625 c-1 -13 -1 -7905 0 -7927 1 -16 92 -17 1406 -17 l1405 0
0 37 0 37 -1361 0 c-748 0 -1365 3 -1370 6 -5 3 -8 1583 -7 3905 l3 3899
15895 0 15895 0 1 -3900 c1 -2145 -2 -3902 -6 -3905 -5 -3 -684 -5 -1509 -5
l-1501 0 0 -37 0 -37 1544 0 1544 0 -1 3977 -2 3977 -15967 0 c-10706 0
-15968 -3 -15969 -10z"/>
<path d="M3648 18263 c-9 -2 -20 -14 -24 -26 -4 -12 -7 -685 -6 -1496 0 -1345
2 -1475 17 -1490 14 -14 102 -16 952 -16 634 0 943 3 957 10 19 9 21 20 24
101 2 76 0 93 -14 105 -14 12 -149 14 -835 14 -644 1 -821 3 -831 13 -10 10
-13 297 -13 1388 0 1345 -1 1376 -19 1390 -18 13 -162 18 -208 7z"/>
<path d="M9308 18263 c-9 -2 -19 -16 -22 -31 -10 -47 2 -2002 13 -2072 40
-261 151 -485 324 -653 156 -152 406 -277 607 -303 73 -10 341 -10 410 -1 284
39 547 185 729 405 116 141 208 366 237 582 12 91 11 2030 -1 2054 -10 19 -19
21 -108 22 -75 1 -100 -2 -110 -14 -9 -12 -12 -210 -13 -901 -1 -785 -6 -1079
-18 -1146 -2 -11 -7 -42 -10 -68 -8 -54 -37 -141 -68 -207 -194 -405 -683
-612 -1113 -469 -272 91 -469 271 -569 523 -16 38 -30 81 -32 95 -3 14 -9 42
-14 61 -21 82 -23 203 -24 1128 -1 1127 14 1003 -121 1000 -44 -1 -88 -3 -97
-5z"/>
<path d="M15708 18253 c-19 -24 -24 -2971 -5 -2997 12 -16 29 -19 108 -21 66
-2 101 2 117 12 l22 13 0 1290 c0 1441 -6 1341 71 1233 39 -55 408 -612 561
-848 308 -472 499 -754 519 -768 36 -25 76 -21 106 11 14 15 133 191 263 392
249 385 360 556 527 810 56 85 146 224 199 307 93 145 120 176 133 154 3 -5 6
-587 6 -1292 0 -1161 1 -1285 16 -1300 14 -14 90 -18 201 -10 10 0 21 13 25
29 3 15 6 690 6 1501 0 1438 0 1474 -19 1488 -25 19 -237 17 -275 -2 -28 -15
-229 -316 -666 -998 -300 -469 -464 -712 -480 -712 -11 0 -39 32 -75 85 -133
200 -497 754 -643 980 -260 403 -414 629 -438 644 -32 22 -261 21 -279 -1z"/>
<path d="M22712 18254 l-22 -15 0 -1488 c0 -1372 1 -1490 17 -1502 21 -18 197
-19 214 -2 9 9 12 392 12 1504 0 1404 -1 1493 -18 1505 -25 19 -176 17 -203
-2z"/>
<path d="M27072 18255 l-22 -16 0 -1482 c0 -1250 2 -1486 14 -1502 12 -16 27
-19 115 -19 80 -1 104 2 111 14 6 9 10 473 10 1207 0 655 3 1198 6 1207 9 24
30 9 86 -63 42 -52 274 -337 357 -436 16 -19 101 -124 349 -430 63 -77 121
-149 131 -160 34 -41 255 -311 285 -349 17 -22 45 -55 62 -75 17 -20 56 -67
86 -106 49 -61 102 -127 241 -299 247 -306 397 -482 427 -503 26 -19 86 -9 99
15 14 27 11 2955 -3 2984 -11 22 -18 23 -114 25 -92 2 -102 1 -112 -17 -7 -13
-10 -376 -10 -1137 1 -1362 2 -1265 -10 -1283 -13 -21 -28 -5 -251 270 -108
135 -286 355 -395 490 -109 135 -241 297 -293 360 -53 64 -112 135 -131 159
-19 24 -40 48 -45 55 -6 6 -103 126 -216 266 -361 450 -648 798 -675 819 -32
25 -71 27 -102 6z"/>
<path d="M5490 13210 c-56 -10 -128 -49 -154 -84 -54 -70 -55 -177 -4 -247 36
-49 126 -80 328 -114 19 -3 52 -17 73 -31 30 -20 37 -30 37 -57 0 -73 -56
-103 -182 -94 -88 6 -138 31 -171 87 -10 16 -25 30 -33 30 -20 0 -114 -48
-114 -59 0 -8 55 -87 75 -107 41 -41 149 -75 243 -76 223 -2 323 66 323 219 0
94 -52 168 -143 202 -15 6 -87 22 -159 36 -142 27 -179 46 -179 92 0 57 36 82
125 89 82 6 148 -19 190 -71 l37 -44 54 36 c30 20 54 38 54 40 0 9 -45 68 -65
85 -25 22 -95 57 -126 64 -39 8 -171 11 -209 4z"/>
<path d="M14090 13204 c-162 -43 -250 -163 -256 -349 -6 -180 55 -305 178
-363 110 -51 258 -47 355 10 18 11 33 24 33 29 0 24 18 5 29 -31 11 -37 15
-40 46 -40 21 0 35 5 36 13 0 6 1 99 2 205 l2 193 -145 -3 -145 -3 0 -45 c-2
-69 -1 -70 80 -70 50 0 75 -4 78 -12 5 -15 -18 -85 -35 -105 -39 -47 -152 -67
-240 -43 -39 11 -104 75 -113 112 -56 235 20 388 193 390 96 2 152 -29 197
-107 10 -16 15 -15 68 15 31 17 57 34 57 36 0 2 -11 22 -24 43 -33 52 -91 98
-148 117 -66 22 -181 25 -248 8z"/>
<path d="M22090 13203 c-116 -30 -200 -107 -240 -219 -69 -198 8 -414 176
-491 67 -31 83 -34 174 -34 163 -1 285 81 335 226 22 62 27 201 10 264 -35
134 -130 229 -256 256 -61 14 -143 13 -199 -2z m196 -129 c79 -33 124 -122
124 -243 0 -157 -66 -241 -196 -247 -121 -5 -199 46 -230 153 -20 69 -15 183
11 234 56 110 174 152 291 103z"/>
<path d="M6340 12838 l0 -368 68 0 68 0 -1 113 -1 112 40 48 c21 26 42 47 46
47 4 0 55 -72 113 -160 l107 -160 80 0 c97 0 105 -27 -73 237 l-129 192 126
145 c69 80 126 149 126 154 0 4 -34 8 -75 7 l-76 0 -136 -162 c-74 -90 -138
-163 -142 -163 -3 0 -6 70 -6 156 0 85 -2 158 -5 162 -3 4 -33 8 -67 8 l-63 0
0 -368z"/>
<path d="M7369 13193 c0 -7 0 -137 0 -288 0 -151 0 -311 0 -355 l1 -81 66 3
67 3 0 358 c0 196 -3 360 -7 365 -14 13 -126 9 -127 -5z"/>
<path d="M7995 13200 c-2 -3 -4 -168 -4 -368 l-1 -362 63 0 62 0 0 265 c0 146
2 265 5 265 3 -1 79 -120 169 -265 l163 -265 69 0 69 0 0 368 0 368 -57 0
c-32 0 -60 -4 -63 -8 -3 -4 -6 -116 -5 -248 0 -132 0 -240 -1 -240 -1 0 -71
109 -155 243 -84 133 -154 244 -157 247 -5 7 -152 7 -157 0z"/>
<path d="M9596 13200 c-2 -5 1 -706 3 -722 1 -5 28 -8 61 -8 l60 0 2 266 3
267 95 -267 94 -266 46 0 47 0 93 258 c51 141 95 260 99 264 3 4 6 -112 6
-257 l-1 -265 66 0 65 0 -1 358 c-1 196 -2 362 -3 367 0 6 -37 11 -89 11 l-88
0 -16 -40 c-9 -23 -33 -86 -53 -141 -19 -55 -39 -107 -42 -115 -3 -8 -7 -19
-9 -25 -5 -19 -63 -167 -66 -170 -2 -2 -34 83 -72 188 -39 106 -79 217 -91
247 l-21 55 -93 0 c-51 0 -93 -2 -95 -5z"/>
<path d="M11001 13196 c-5 -6 -29 -69 -54 -141 -116 -332 -197 -568 -197 -576
0 -5 28 -9 63 -9 l63 0 28 85 28 85 134 0 133 0 26 -85 26 -85 71 0 c52 0 69
3 66 13 -6 15 -59 175 -61 181 0 3 -41 125 -91 273 l-91 268 -68 0 c-37 1 -71
-3 -76 -9z m110 -293 c23 -71 44 -133 46 -138 3 -8 -140 -13 -179 -6 -6 1 81
271 88 271 1 0 21 -57 45 -127z"/>
<path d="M11800 12839 l0 -369 63 0 63 0 -1 265 c0 202 3 261 12 252 6 -7 81
-124 166 -262 l155 -250 70 -3 70 -3 -1 368 -2 368 -57 0 c-32 0 -59 -4 -61
-10 -2 -5 -3 -117 -3 -247 1 -173 -2 -234 -10 -225 -6 7 -75 116 -154 242 -79
127 -145 232 -147 235 -2 2 -40 5 -84 6 l-79 1 0 -368z"/>
<path d="M13052 13176 c-5 -17 -42 -123 -81 -236 -101 -287 -161 -462 -161
-466 0 -2 29 -4 64 -4 l65 0 28 85 27 86 135 -3 134 -3 25 -82 26 -83 68 0
c37 0 68 3 68 8 0 4 -54 169 -120 367 l-121 360 -73 1 c-74 1 -74 1 -84 -30z
m127 -286 c22 -69 41 -127 41 -131 0 -7 -168 -4 -176 3 -3 4 14 65 38 137 23
71 46 127 49 123 4 -4 25 -63 48 -132z"/>
<path d="M14979 13205 c-1 0 -2 -165 -3 -367 l-1 -368 292 0 293 0 0 60 0 60
-37 1 c-21 0 -123 1 -226 1 l-188 0 3 96 3 97 170 1 c94 1 176 2 183 3 10 1
12 17 10 59 l-3 57 -170 1 c-93 1 -176 2 -182 3 -9 1 -13 25 -13 86 l0 85 215
0 c237 0 217 -6 217 60 0 11 0 30 -1 43 l-1 23 -280 0 c-154 -1 -281 -1 -281
-1z"/>
<path d="M16009 13205 c-1 0 -2 -165 -3 -367 l-1 -368 62 0 62 0 0 262 c1 144
2 263 4 264 1 2 21 -52 44 -119 23 -67 65 -186 94 -265 l52 -143 46 3 46 3 97
265 97 265 1 -267 0 -268 68 0 67 0 -1 358 c0 197 -3 362 -7 368 -6 11 -156
13 -173 2 -6 -4 -51 -116 -99 -248 -51 -138 -91 -236 -95 -228 -4 7 -42 110
-84 228 -43 118 -81 224 -85 235 -7 18 -17 20 -100 20 -50 0 -92 1 -92 0z"/>
<path d="M17224 13201 c-2 -2 -4 -168 -4 -368 l0 -363 293 0 292 0 1 60 c1 38
-3 60 -10 61 -6 0 -108 1 -226 2 l-214 2 -1 95 0 95 183 0 c157 -1 182 1 183
15 1 16 1 92 0 100 -1 3 -83 6 -183 6 l-183 0 0 84 0 85 218 3 218 2 -3 63 -3
62 -278 0 c-153 0 -280 -1 -283 -4z"/>
<path d="M18250 12838 l0 -368 63 0 62 0 -2 265 c-2 168 1 265 7 265 6 0 10
-4 10 -9 0 -5 17 -36 38 -68 21 -32 42 -65 45 -73 4 -8 58 -96 120 -195 l113
-180 72 -3 71 -3 1 364 c0 286 -2 366 -12 369 -7 2 -35 4 -63 4 l-50 -1 -1
-238 c-1 -131 -4 -240 -6 -242 -2 -3 -74 104 -158 238 l-153 243 -79 0 -78 -1
0 -367z"/>
<path d="M19275 13201 c-3 -2 -5 -30 -5 -62 l0 -58 128 -3 127 -3 0 -302 0
-303 67 0 c58 0 68 3 69 18 0 9 1 146 1 305 l1 287 128 0 129 0 -3 63 -2 62
-318 0 c-175 1 -320 -1 -322 -4z"/>
<path d="M20883 13202 c-6 -1 -9 -644 -4 -719 1 -9 21 -13 66 -13 45 0 65 4
66 13 0 6 0 76 0 155 l1 142 171 0 172 0 -2 37 c-1 21 -2 49 -2 63 l-1 26
-157 -1 c-87 -1 -163 1 -170 3 -8 2 -12 31 -11 88 l0 84 201 2 201 3 -1 33
c-1 17 -2 45 -2 60 l-1 28 -260 0 c-143 -1 -263 -2 -267 -4z"/>
<path d="M23012 13201 c-6 -3 -10 -164 -10 -368 l0 -363 69 0 68 0 0 118 c0
64 0 132 1 150 l0 34 116 -4 c115 -3 116 -3 144 -34 22 -25 29 -45 35 -100 7
-70 10 -86 21 -136 6 -28 7 -28 84 -28 l78 0 -13 28 c-8 15 -16 54 -20 87 -11
109 -15 128 -36 165 -12 21 -32 44 -45 50 -23 13 -23 13 20 40 65 42 92 119
71 210 -15 70 -80 129 -160 145 -46 10 -410 14 -423 6z m397 -132 c53 -18 71
-82 41 -139 -17 -32 -61 -41 -189 -38 l-124 3 1 48 c0 26 1 67 1 92 l1 45 119
0 c65 0 132 -5 150 -11z"/>
<path d="M24596 13193 c-3 -7 -5 -173 -5 -368 l0 -355 62 0 62 0 0 264 c0 146
2 262 5 260 2 -3 45 -121 96 -262 l91 -257 47 0 47 0 49 130 c26 72 70 190 96
264 l49 133 3 -266 2 -266 65 0 65 0 0 368 0 368 -89 1 -89 0 -16 -36 c-9 -20
-52 -133 -95 -251 -44 -118 -82 -208 -85 -200 -3 8 -42 116 -87 240 -44 124
-85 229 -90 235 -15 15 -177 14 -183 -2z"/>
<path d="M25809 13185 c0 -11 -1 -176 -2 -368 l-2 -347 293 0 292 0 0 60 c0
55 -2 60 -22 61 -13 0 -113 1 -223 2 l-200 2 -1 95 -1 96 183 -1 184 -1 0 61
0 61 -172 -1 c-95 -1 -178 1 -185 3 -7 2 -11 32 -11 88 l1 84 217 0 217 0 -2
58 c-2 31 -3 59 -4 62 -1 3 -127 5 -281 5 -273 0 -280 0 -281 -20z"/>
<path d="M26842 13196 c-5 -8 -8 -639 -3 -713 1 -9 20 -13 61 -13 l60 0 0 272
0 272 111 -179 c61 -99 137 -221 168 -272 l56 -92 70 -1 70 0 -1 363 c-1 199
-2 364 -3 367 0 3 -28 6 -61 7 l-60 1 -2 -250 -3 -249 -38 63 c-21 35 -91 146
-155 248 l-117 185 -73 1 c-41 0 -76 -4 -80 -10z"/>
</g>
</svg>
